<svg xmlns="http://www.w3.org/2000/svg" viewBox="0 0 64 64">
  <!-- Background circle -->
  <circle cx="32" cy="32" r="30" fill="#1e293b" stroke="#334155" stroke-width="2"/>
  
  <!-- Speech bubble base -->
  <path d="M12 24 Q12 16 20 16 L44 16 Q52 16 52 24 L52 36 Q52 44 44 44 L20 44 Q12 44 12 36 Z" fill="#ffffff" stroke="#334155" stroke-width="1"/>
  
  <!-- Speech bubble tail -->
  <path d="M20 44 L16 48 L20 52 L24 48 Z" fill="#ffffff" stroke="#334155" stroke-width="1"/>
  
  <!-- Human head profile (emerging from speech bubble) -->
  <ellipse cx="32" cy="30" rx="8" ry="10" fill="#f8fafc" stroke="#334155" stroke-width="1"/>
  
  <!-- Human face features -->
  <circle cx="36" cy="28" r="1.5" fill="#334155"/> <!-- Eye -->
  <path d="M30 32 Q32 34 34 32" fill="none" stroke="#334155" stroke-width="1.5" stroke-linecap="round"/> <!-- Smile -->
  
  <!-- Spark/glow inside head (human thought) -->
  <g opacity="0.8">
    <circle cx="32" cy="26" r="2" fill="#fbbf24"/>
    <circle cx="32" cy="26" r="1" fill="#fde047"/>
    <circle cx="32" cy="26" r="0.5" fill="#ffffff"/>
  </g>
  
  <!-- AI input side (fading square pixels) -->
  <g opacity="0.6">
    <rect x="14" y="18" width="2" height="2" fill="#3b82f6"/>
    <rect x="17" y="18" width="2" height="2" fill="#3b82f6" opacity="0.8"/>
    <rect x="20" y="18" width="2" height="2" fill="#3b82f6" opacity="0.6"/>
    <rect x="23" y="18" width="2" height="2" fill="#3b82f6" opacity="0.4"/>
    <rect x="26" y="18" width="2" height="2" fill="#3b82f6" opacity="0.2"/>
  </g>
  
  <!-- Human output side (fluid hand-drawn lines) -->
  <g opacity="0.8">
    <path d="M38 18 Q40 20 42 18 Q44 16 46 18" fill="none" stroke="#10b981" stroke-width="1.5" stroke-linecap="round"/>
    <path d="M38 22 Q40 24 42 22 Q44 20 46 22" fill="none" stroke="#10b981" stroke-width="1.5" stroke-linecap="round"/>
    <path d="M38 26 Q40 28 42 26 Q44 24 46 26" fill="none" stroke="#10b981" stroke-width="1.5" stroke-linecap="round"/>
  </g>
  
  <!-- Transition zone (middle) -->
  <g opacity="0.4">
    <circle cx="32" cy="20" r="1" fill="#8b5cf6"/>
    <circle cx="32" cy="24" r="0.8" fill="#8b5cf6"/>
    <circle cx="32" cy="28" r="0.6" fill="#8b5cf6"/>
  </g>
</svg> 